# xmcd
#
# Track frame offsets:
#	150
#	10857
#	22131
#	32174
#	42499
#	53460
#	66036
#	74363
#	86564
#	94303
#	104509
#	114103
#	127089
#	138564
#	152779
#	166445
#	179147
#	196717
#
# Disc length: 2843 seconds
#
# Revision: 3
# Processed by: cddbd v1.5.2PL0 Copyright (c) Steve Scherf et al.
# Submitted via: audiograbber 1.83.01
#
DISCID=fd0b1912
DTITLE=Golden Earring - Complete Studio Recordings [CD 27) - Non-Album Tracks 1
DTITLE=[remastered 2017]
DYEAR=2017
DGENRE=Rock
TTITLE0=The Golden Earrings - Chunk Of Steel [mono]
TTITLE1=The Golden Ear-Rings - That Day [mono]
TTITLE2=The Golden Ear-Rings - The Words I Need [mono]
TTITLE3=The Golden Earrings - If You Leave Me [mono]
TTITLE4=The Golden Earrings - Waiting For You [mono]
TTITLE5=Golden Earrings - Things Go Better [mono]
TTITLE6=Golden Earrings - Rum And Coca-Cola [mono]
TTITLE7=Golden Earrings - Daddy Buy Me A Girl [mono]
TTITLE8=Golden Earrings - What You Gonna Tell [mono]
TTITLE9=Golden Earrings - Don't Run Too Far [mono]
TTITLE10=Golden Earrings - Wings [mono]
TTITLE11=Golden Earrings - Sound Of The Screaming Day [mono]
TTITLE12=Golden Earrings - She Won't Come To Me [mono]
TTITLE13=Golden Earrings - Together We Live, Together We Love [mono]
TTITLE14=Golden Earrings - DongDong-Di-Ki-Di-Gi-Dong [mono]
TTITLE15=Golden Earrings - Wake Up - Breakfast [mono]
TTITLE16=Golden Earrings - Where Will I Be
TTITLE17=Golden Earrings - It's Alright But I Admit It Could Be Better
EXTD=
EXTT0=
EXTT1=
EXTT2=
EXTT3=
EXTT4=
EXTT5=
EXTT6=
EXTT7=
EXTT8=
EXTT9=
EXTT10=
EXTT11=
EXTT12=
EXTT13=
EXTT14=
EXTT15=
EXTT16=
EXTT17=
PLAYORDER=
